<svg width="16" height="16" viewBox="0 0 16 16" fill="none" xmlns="http://www.w3.org/2000/svg">
<path fill-rule="evenodd" clip-rule="evenodd" d="M12.3634 0.260014L13.3314 2.21773C13.3479 2.26861 13.3762 2.31489 13.4139 2.35281C13.4516 2.39073 13.4978 2.41924 13.5486 2.43601L15.7131 2.74916C15.775 2.75812 15.8332 2.7843 15.8809 2.82471C15.9287 2.86513 15.9641 2.91814 15.9832 2.97772C16.0022 3.0373 16.0042 3.10103 15.9888 3.16165C15.9733 3.22228 15.9412 3.27735 15.896 3.32059L14.3509 4.86573C14.3142 4.90477 14.2868 4.95152 14.2706 5.00254C14.2544 5.05356 14.2498 5.10756 14.2571 5.16059L14.6343 7.26001C14.6453 7.32147 14.6388 7.38478 14.6156 7.44274C14.5924 7.5007 14.5534 7.55099 14.503 7.58789C14.4527 7.6248 14.393 7.64684 14.3307 7.6515C14.2685 7.65617 14.2062 7.64328 14.1509 7.6143L12.216 6.59944C12.1691 6.57353 12.1164 6.55994 12.0629 6.55994C12.0093 6.55994 11.9566 6.57353 11.9097 6.59944L9.976 7.6143C9.9207 7.64328 9.85839 7.65617 9.79613 7.6515C9.73387 7.64684 9.67417 7.6248 9.62382 7.58789C9.57346 7.55099 9.53447 7.5007 9.51127 7.44274C9.48806 7.38478 9.48159 7.32147 9.49257 7.26001L9.864 5.10801C9.87121 5.0549 9.86644 5.00085 9.85002 4.94982C9.83361 4.8988 9.80597 4.8521 9.76914 4.81316L8.224 3.26801C8.18507 3.22572 8.15773 3.17409 8.14462 3.11812C8.13151 3.06216 8.13307 3.00375 8.14917 2.94857C8.16526 2.89339 8.19534 2.8433 8.23648 2.80315C8.27763 2.76301 8.32844 2.73418 8.384 2.71944L10.5474 2.4063C10.6007 2.39669 10.651 2.37459 10.6941 2.34181C10.7372 2.30903 10.7719 2.26651 10.7954 2.21773L11.7623 0.260014C11.7896 0.203469 11.8322 0.155765 11.8854 0.122381C11.9386 0.0889979 12.0001 0.0712891 12.0629 0.0712891C12.1256 0.0712891 12.1871 0.0889979 12.2403 0.122381C12.2935 0.155765 12.3362 0.203469 12.3634 0.260014ZM9.73143 12.5H14.2857C14.5108 12.5 14.7338 12.4557 14.9417 12.3695C15.1497 12.2834 15.3387 12.1571 15.4979 11.9979C15.6571 11.8387 15.7834 11.6497 15.8695 11.4418C15.9557 11.2338 16 11.0109 16 10.7857V10.2143C16 10.0642 15.9704 9.91561 15.913 9.77695C15.8556 9.63829 15.7714 9.5123 15.6653 9.40618C15.5591 9.30005 15.4332 9.21587 15.2945 9.15844C15.1558 9.101 15.0072 9.07144 14.8571 9.07144C14.7071 9.07144 14.5584 9.101 14.4198 9.15844C14.2811 9.21587 14.1551 9.30005 14.049 9.40618C13.9429 9.5123 13.8587 9.63829 13.8013 9.77695C13.7438 9.91561 13.7143 10.0642 13.7143 10.2143H2.28571V3.35716H5.71429C6.01739 3.35716 6.30808 3.23675 6.52241 3.02242C6.73673 2.80809 6.85714 2.5174 6.85714 2.2143C6.85714 1.91119 6.73673 1.6205 6.52241 1.40618C6.30808 1.19185 6.01739 1.07144 5.71429 1.07144H1.71429C1.25963 1.07144 0.823594 1.25205 0.502103 1.57354C0.180612 1.89504 0 2.33107 0 2.78573L0 10.7857C0 11.2404 0.180612 11.6764 0.502103 11.9979C0.823594 12.3194 1.25963 12.5 1.71429 12.5H6.26857L5.65486 14.2143H4.57143C4.3441 14.2143 4.12608 14.3046 3.96534 14.4654C3.80459 14.6261 3.71429 14.8441 3.71429 15.0714C3.71429 15.2988 3.80459 15.5168 3.96534 15.6775C4.12608 15.8383 4.3441 15.9286 4.57143 15.9286H11.4286C11.6559 15.9286 11.8739 15.8383 12.0347 15.6775C12.1954 15.5168 12.2857 15.2988 12.2857 15.0714C12.2857 14.8441 12.1954 14.6261 12.0347 14.4654C11.8739 14.3046 11.6559 14.2143 11.4286 14.2143H10.3451L9.73143 12.5Z" fill="#6471F6"/>
</svg>
