<svg xmlns="http://www.w3.org/2000/svg" width="38" height="38" viewBox="0 0 38 38" fill="none">
  <g filter="url(#filter0_d_253_4564)">
    <path d="M8.80356 28.5538C9.76469 26.9762 11.1155 25.6722 12.7262 24.7676C14.3368 23.8627 16.1531 23.3875 18.0005 23.3875C19.8479 23.3875 21.6642 23.8627 23.2748 24.7676C24.8855 25.6722 26.2362 26.9762 27.1975 28.5538M18.0004 20.1538C20.9742 20.1538 23.385 17.7431 23.385 14.7692C23.385 11.7954 20.9742 9.38461 18.0004 9.38461C15.0265 9.38461 12.6157 11.7954 12.6157 14.7692C12.6157 17.7431 15.0265 20.1538 18.0004 20.1538ZM18 32C25.7321 32 32 25.7321 32 18C32 10.268 25.7321 4 18 4C10.268 4 4 10.268 4 18C4 25.7321 10.268 32 18 32Z" stroke="#CCD4FF" stroke-width="2" stroke-linecap="round" stroke-linejoin="round"/>
  </g>
  <defs>
    <filter id="filter0_d_253_4564" x="0" y="0" width="38" height="38" filterUnits="userSpaceOnUse" color-interpolation-filters="sRGB">
      <feFlood flood-opacity="0" result="BackgroundImageFix"/>
      <feColorMatrix in="SourceAlpha" type="matrix" values="0 0 0 0 0 0 0 0 0 0 0 0 0 0 0 0 0 0 127 0" result="hardAlpha"/>
      <feOffset dx="1" dy="1"/>
      <feGaussianBlur stdDeviation="2"/>
      <feComposite in2="hardAlpha" operator="out"/>
      <feColorMatrix type="matrix" values="0 0 0 0 0.193513 0 0 0 0 0.243359 0 0 0 0 0.75332 0 0 0 0.3 0"/>
      <feBlend mode="normal" in2="BackgroundImageFix" result="effect1_dropShadow_253_4564"/>
      <feBlend mode="normal" in="SourceGraphic" in2="effect1_dropShadow_253_4564" result="shape"/>
    </filter>
  </defs>
</svg>