<svg width="30" height="30" viewBox="0 0 30 30" fill="none" xmlns="http://www.w3.org/2000/svg">
<path d="M5.80356 25.5538C6.76469 23.9762 8.11552 22.6722 9.72617 21.7676C11.3368 20.8627 13.1531 20.3875 15.0005 20.3875C16.8479 20.3875 18.6642 20.8627 20.2748 21.7676C21.8855 22.6722 23.2362 23.9762 24.1975 25.5538M15.0004 17.1538C17.9742 17.1538 20.385 14.7431 20.385 11.7692C20.385 8.79539 17.9742 6.38461 15.0004 6.38461C12.0265 6.38461 9.61574 8.79539 9.61574 11.7692C9.61574 14.7431 12.0265 17.1538 15.0004 17.1538ZM15 29C22.7321 29 29 22.7321 29 15C29 7.26802 22.7321 1 15 1C7.26802 1 1 7.26802 1 15C1 22.7321 7.26802 29 15 29Z" stroke="white" stroke-width="2" stroke-linecap="round" stroke-linejoin="round"/>
</svg>
